<?xml version="1.0" encoding="UTF-8" standalone="no"?>
<svg
   height="24"
   viewBox="0 96 960 960"
   width="24"
   version="1.1"
   id="svg4"
   sodipodi:docname="accept2.svg"
   inkscape:version="1.2.2 (b0a8486541, 2022-12-01)"
   xmlns:inkscape="http://www.inkscape.org/namespaces/inkscape"
   xmlns:sodipodi="http://sodipodi.sourceforge.net/DTD/sodipodi-0.dtd"
   xmlns:xlink="http://www.w3.org/1999/xlink"
   xmlns="http://www.w3.org/2000/svg"
   xmlns:svg="http://www.w3.org/2000/svg">
  <defs
     id="defs8">
    <linearGradient
       id="linearGradient3879"
       inkscape:swatch="solid">
      <stop
         style="stop-color:#4682b4;stop-opacity:1;"
         offset="0"
         id="stop3877" />
    </linearGradient>
    <linearGradient
       inkscape:collect="always"
       xlink:href="#linearGradient3879"
       id="linearGradient3881"
       x1="80"
       y1="576"
       x2="880"
       y2="576"
       gradientUnits="userSpaceOnUse" />
  </defs>
  <sodipodi:namedview
     id="namedview6"
     pagecolor="#ffffff"
     bordercolor="#000000"
     borderopacity="0.25"
     inkscape:showpageshadow="2"
     inkscape:pageopacity="0.0"
     inkscape:pagecheckerboard="0"
     inkscape:deskcolor="#d1d1d1"
     showgrid="false"
     inkscape:zoom="42.791667"
     inkscape:cx="12.011685"
     inkscape:cy="12.023369"
     inkscape:window-width="1685"
     inkscape:window-height="1251"
     inkscape:window-x="733"
     inkscape:window-y="208"
     inkscape:window-maximized="0"
     inkscape:current-layer="svg4" />
  <path
     d="m424 648-86-86q-11-11-28-11t-28 11q-11 11-11 28t11 28l114 114q12 12 28 12t28-12l226-226q11-11 11-28t-11-28q-11-11-28-11t-28 11L424 648Zm56 328q-83 0-156-31.5T197 859q-54-54-85.5-127T80 576q0-83 31.5-156T197 293q54-54 127-85.5T480 176q83 0 156 31.5T763 293q54 54 85.5 127T880 576q0 83-31.5 156T763 859q-54 54-127 85.5T480 976Zm0-80q134 0 227-93t93-227q0-134-93-227t-227-93q-134 0-227 93t-93 227q0 134 93 227t227 93Zm0-320Z"
     id="path2"
     style="fill-opacity:1;fill:url(#linearGradient3881)" />
</svg>
