<?xml version="1.0" encoding="UTF-8" standalone="no"?>
<svg
   height="24"
   viewBox="0 96 960 960"
   width="24"
   version="1.1"
   id="svg4"
   sodipodi:docname="cloud.svg"
   inkscape:version="1.1.2 (0a00cf5339, 2022-02-04)"
   xmlns:inkscape="http://www.inkscape.org/namespaces/inkscape"
   xmlns:sodipodi="http://sodipodi.sourceforge.net/DTD/sodipodi-0.dtd"
   xmlns="http://www.w3.org/2000/svg"
   xmlns:svg="http://www.w3.org/2000/svg">
  <defs
     id="defs8" />
  <sodipodi:namedview
     id="namedview6"
     pagecolor="#ffffff"
     bordercolor="#000000"
     borderopacity="0.25"
     inkscape:pageshadow="2"
     inkscape:pageopacity="0.0"
     inkscape:pagecheckerboard="0"
     showgrid="true"
     inkscape:zoom="36.375"
     inkscape:cx="12"
     inkscape:cy="12"
     inkscape:window-width="3370"
     inkscape:window-height="1369"
     inkscape:window-x="70"
     inkscape:window-y="34"
     inkscape:window-maximized="1"
     inkscape:current-layer="svg4">
    <inkscape:grid
       type="xygrid"
       id="grid825" />
  </sodipodi:namedview>
  <g
     inkscape:groupmode="layer"
     id="layer1"
     inkscape:label="Layer 1"
     style="display:inline">
    <path
       style="fill:#2979ff;fill-opacity:1;fill-rule:evenodd;stroke:#000000;stroke-width:0.00151203;stroke-linecap:square;paint-order:markers stroke fill"
       d="M 11.867912,4.0047251 C 10.564286,3.9786084 9.2690045,4.3949737 8.1818084,5.1047036 6.7923293,6.0096587 5.7195392,7.4078395 5.2720146,9.010524 5.2638161,9.117126 5.180543,9.1665512 5.0816151,9.1774592 4.0470312,9.4289773 3.0967596,10.005543 2.3993706,10.810976 c -0.8948827,1.003501 -1.41419773,2.33444 -1.40670724,3.681559 -0.0287781,1.115155 0.28463674,2.241912 0.93706924,3.151952 0.8152516,1.161899 2.0767485,2.013523 3.4785305,2.27239 0.5865699,0.122847 1.1902694,0.05206 1.7847128,0.07582 3.9902451,0.01328 7.9805611,0.0029 11.9707911,0.0018 0.820551,-0.157552 1.628418,-0.472927 2.252033,-1.04353 0.900919,-0.766063 1.537525,-1.887286 1.571797,-3.084585 0.02773,-0.652695 0.0084,-1.323628 -0.241785,-1.936963 -0.533939,-1.421122 -1.794153,-2.58065 -3.300348,-2.871171 -0.13645,-0.02928 -0.274482,-0.05016 -0.411959,-0.0739 C 18.991729,9.9888605 18.831693,8.9837773 18.407966,8.0743651 17.800933,6.7551736 16.764805,5.6446119 15.522498,4.9001289 14.679067,4.4112905 13.724633,4.1065038 12.753388,4.0220391 12.458665,4.0033009 12.163092,4.0043325 11.867912,4.0047251 Z m 0.131659,2.0133161 c 1.253077,-0.018291 2.500314,0.4699439 3.404961,1.3403673 0.916527,0.8433232 1.50624,2.0444745 1.559037,3.2941785 0.05222,0.789454 0.01154,1.591205 0.03987,2.374582 0.68665,0.01788 1.380054,-0.04142 2.062222,0.04984 0.926765,0.191778 1.683925,0.992188 1.870876,1.912363 0.03512,0.396929 0.05983,0.810856 -0.04256,1.199466 -0.23721,0.872664 -0.991795,1.558749 -1.868964,1.756427 -0.351525,0.05579 -0.717396,0.009 -1.074512,0.02482 -3.724804,-0.0037 -7.449717,0.01907 -11.1744522,-0.0054 -0.5127093,-0.01174 -1.0413023,0.0086 -1.5200817,-0.205219 C 3.9912407,17.272453 3.032966,16.007143 3.0267051,14.635165 2.9768823,13.680507 3.335743,12.703111 4.0439755,12.049828 4.5944753,11.45683 5.3726136,11.079758 6.1835266,11.043761 6.455288,11.018718 6.7369339,11.034294 7.0029531,11.004027 7.0374243,10.327521 7.1327665,9.6445328 7.4122636,9.0215852 8.1177515,7.4075678 9.7178032,6.1811451 11.489241,6.0443887 c 0.169091,-0.016695 0.340036,-0.025495 0.51033,-0.026347 z"
       id="path978"
       transform="matrix(40,0,0,40,0,96)" />
  </g>
</svg>
