<?xml version="1.0" encoding="UTF-8" standalone="no"?>
<svg
   height="24"
   viewBox="0 96 960 960"
   width="24"
   version="1.1"
   id="svg4"
   sodipodi:docname="loaded.svg"
   inkscape:version="1.1.2 (0a00cf5339, 2022-02-04)"
   xmlns:inkscape="http://www.inkscape.org/namespaces/inkscape"
   xmlns:sodipodi="http://sodipodi.sourceforge.net/DTD/sodipodi-0.dtd"
   xmlns="http://www.w3.org/2000/svg"
   xmlns:svg="http://www.w3.org/2000/svg">
  <defs
     id="defs8" />
  <sodipodi:namedview
     id="namedview6"
     pagecolor="#ffffff"
     bordercolor="#000000"
     borderopacity="0.25"
     inkscape:pageshadow="2"
     inkscape:pageopacity="0.0"
     inkscape:pagecheckerboard="0"
     showgrid="false"
     inkscape:zoom="36.375"
     inkscape:cx="6.419244"
     inkscape:cy="12"
     inkscape:window-width="3370"
     inkscape:window-height="1369"
     inkscape:window-x="70"
     inkscape:window-y="34"
     inkscape:window-maximized="1"
     inkscape:current-layer="svg4" />
  <g
     inkscape:groupmode="layer"
     id="layer2"
     inkscape:label="Layer 1"
     style="display:inline">
    <path
       style="fill:#2979ff;fill-rule:evenodd;stroke:#000000;stroke-width:0.00151203;stroke-linecap:square;paint-order:markers stroke fill"
       d="M 8.27035,2.9862006 C 7.0511195,2.9972995 5.8300322,2.9642179 4.6121671,3.0315185 4.3019178,3.0398184 4.0418738,3.2307605 3.7926332,3.3936856 3.3322085,3.7521307 2.9789897,4.3147576 3.0043158,4.9142826 2.9716323,8.0693996 2.993,11.224889 2.986834,14.380155 c 0.00863,1.645701 -0.016167,3.292117 0.026912,4.937339 0.061738,0.515757 0.3821401,0.980671 0.7863071,1.29557 0.3745603,0.293929 0.8557168,0.428374 1.3288646,0.39776 1.0315222,0.01292 2.0633149,0.0041 3.0947725,0.0019 0.4363788,-0.124475 0.8159368,-0.540853 0.7759879,-1.012779 0.036552,-0.465698 -0.341843,-0.925514 -0.7999893,-0.995704 -1.0565108,-0.04348 -2.1151851,-0.01877 -3.1725193,-0.03383 0,-3.987955 0,-7.97591 0,-11.9638643 4.648554,0 9.2971075,0 13.9456615,0 0,3.9879543 0,7.9759093 0,11.9638643 -1.057409,0.01498 -2.11615,-0.0096 -3.172734,0.03383 -0.410259,0.06154 -0.754503,0.438973 -0.797305,0.847777 -0.02524,0.258707 0.0071,0.529487 0.173003,0.739315 0.196768,0.275778 0.534405,0.471208 0.879188,0.42209 1.092313,-0.01044 2.18594,0.0228 3.277438,-0.0225 0.674694,-0.107302 1.253827,-0.598993 1.532055,-1.214294 0.162289,-0.311192 0.102763,-0.682331 0.132745,-1.020168 0.03378,-3.017872 0.0088,-6.036121 0.01599,-9.0541443 -0.0088,-1.6731926 0.01642,-3.347101 -0.02696,-5.0198133 C 20.919251,4.13415 20.566844,3.6398167 20.11807,3.3298402 19.88097,3.1842287 19.634311,3.023047 19.344015,3.0277032 c -1.432632,-0.065686 -2.867913,-0.030766 -4.301653,-0.04154 -2.257338,5.653e-4 -4.514676,1.048e-4 -6.7720147,3.49e-5 z"
       id="path1234"
       transform="matrix(40,0,0,40,0,96)" />
    <path
       style="fill:#2979ff;fill-rule:evenodd;stroke:#000000;stroke-width:0.00151203;stroke-linecap:square;paint-order:markers stroke fill"
       d="m 12.068621,11.425741 c -0.216805,-0.01356 -0.451994,-0.002 -0.619147,0.156841 -0.674903,0.57968 -1.271985,1.243586 -1.9082838,1.864497 -0.3471134,0.367019 -0.729848,0.706123 -1.0377001,1.107313 -0.1633382,0.344569 -0.1442769,0.776923 0.1072273,1.075118 0.2759502,0.409448 0.8741901,0.525919 1.2949956,0.283559 0.38155,-0.309552 0.71455,-0.673281 1.067118,-1.014336 0.0088,1.743646 -0.02086,3.488049 0.02481,5.231192 0.04032,0.462581 0.443103,0.836467 0.898731,0.883552 0.502712,0.05598 1.01848,-0.312811 1.098113,-0.819785 0.05166,-1.005586 0.02307,-2.014863 0.03269,-3.021871 0,-0.757266 0,-1.514533 0,-2.2718 0.368791,0.338862 0.689337,0.737932 1.103576,1.02368 0.406448,0.228634 0.960434,0.107489 1.239637,-0.266162 0.18221,-0.186057 0.254966,-0.446455 0.227387,-0.702159 0.03675,-0.378649 -0.301322,-0.634115 -0.523363,-0.889373 -0.792982,-0.7975 -1.57719,-1.605165 -2.396926,-2.375222 -0.168509,-0.156672 -0.365961,-0.296714 -0.608859,-0.265044 z"
       id="path1273"
       transform="matrix(40,0,0,40,0,96)" />
  </g>
</svg>
