<?xml version="1.0" encoding="UTF-8" standalone="no"?>
<svg
   height="24"
   viewBox="0 96 960 960"
   width="24"
   version="1.1"
   id="svg381"
   sodipodi:docname="patient_success.svg"
   inkscape:version="1.2.2 (b0a8486541, 2022-12-01)"
   xmlns:inkscape="http://www.inkscape.org/namespaces/inkscape"
   xmlns:sodipodi="http://sodipodi.sourceforge.net/DTD/sodipodi-0.dtd"
   xmlns="http://www.w3.org/2000/svg"
   xmlns:svg="http://www.w3.org/2000/svg">
  <defs
     id="defs385" />
  <sodipodi:namedview
     id="namedview383"
     pagecolor="#ffffff"
     bordercolor="#000000"
     borderopacity="0.25"
     inkscape:showpageshadow="2"
     inkscape:pageopacity="0.0"
     inkscape:pagecheckerboard="0"
     inkscape:deskcolor="#d1d1d1"
     showgrid="false"
     inkscape:zoom="42.791667"
     inkscape:cx="12"
     inkscape:cy="12.023369"
     inkscape:window-width="3374"
     inkscape:window-height="1363"
     inkscape:window-x="66"
     inkscape:window-y="40"
     inkscape:window-maximized="1"
     inkscape:current-layer="svg381" />
  <path
     d="m 360,696 q -66,0 -113,-47 -47,-47 -47,-113 0,-66 47,-113 47,-47 113,-47 66,0 113,47 47,47 47,113 0,66 -47,113 -47,47 -113,47 z m 240,320 H 120 Q 87,1016 63.5,992.5 40,969 40,936 V 904 Q 40,870 57.5,841.5 75,813 104,798 166,767 230,751.5 294,736 360,736 q 66,0 130,15.5 64,15.5 126,46.5 29,15 46.5,43.5 Q 680,870 680,904 v 32 q 0,33 -23.5,56.5 Q 633,1016 600,1016 Z M 120,936 h 480 v -32 q 0,-11 -5.5,-20 Q 589,875 580,870 526,843 471,829.5 416,816 360,816 304,816 249,829.5 194,843 140,870 q -9,5 -14.5,14 -5.5,9 -5.5,20 z M 360,616 q 33,0 56.5,-23.5 Q 440,569 440,536 440,503 416.5,479.5 393,456 360,456 327,456 303.5,479.5 280,503 280,536 q 0,33 23.5,56.5 Q 327,616 360,616 Z m 0,-80 z m 0,400 z"
     id="path379" />
  <path
     d="M 692,371.99999 649,329 q -5.5,-5.5 -14,-5.5 -8.5,0 -14,5.5 -5.5,5.5 -5.5,13.99999 0,8.5 5.5,14 l 57,57 q 6,6 14,6 8,0 13.99999,-6 L 818.99999,301 q 5.5,-5.5 5.5,-14 0,-8.5 -5.5,-14 -5.5,-5.5 -14,-5.5 -8.5,0 -14,5.5 z M 719.99999,536 Q 678.5,536 642,520.25 605.5,504.5 578.5,477.49999 q -27,-27 -42.75,-63.5 Q 520,377.49999 520,336 q 0,-41.5 15.75,-78 15.75,-36.5 42.75,-63.5 27,-27 63.5,-42.75 36.5,-15.75 77.99999,-15.75 41.5,0 78,15.75 36.5,15.75 63.5,42.75 27,27 42.75,63.5 15.75,36.5 15.75,78 0,41.49999 -15.75,77.99999 -15.75,36.5 -42.75,63.5 -27,27.00001 -63.5,42.75001 -36.5,15.75 -78,15.75 z m 0,-40 q 67,0 113.5,-46.50001 46.5,-46.5 46.5,-113.49999 0,-67 -46.5,-113.5 -46.5,-46.5 -113.5,-46.5 Q 653,176 606.5,222.5 560,269 560,336 560,402.99999 606.5,449.49999 653,496 719.99999,496 Z m 0,-160 z"
     id="path15739"
     style="stroke-width:0.5" />
</svg>
