<?xml version="1.0" encoding="UTF-8" standalone="no"?>
<svg
   height="48px"
   viewBox="0 -960 960 960"
   width="48px"
   fill="#000000"
   version="1.1"
   id="svg132"
   sodipodi:docname="query_failed.svg"
   inkscape:version="1.2.2 (b0a8486541, 2022-12-01)"
   xmlns:inkscape="http://www.inkscape.org/namespaces/inkscape"
   xmlns:sodipodi="http://sodipodi.sourceforge.net/DTD/sodipodi-0.dtd"
   xmlns="http://www.w3.org/2000/svg"
   xmlns:svg="http://www.w3.org/2000/svg">
  <defs
     id="defs136" />
  <sodipodi:namedview
     id="namedview134"
     pagecolor="#ffffff"
     bordercolor="#000000"
     borderopacity="0.25"
     inkscape:showpageshadow="2"
     inkscape:pageopacity="0.0"
     inkscape:pagecheckerboard="0"
     inkscape:deskcolor="#d1d1d1"
     showgrid="false"
     inkscape:zoom="23.729167"
     inkscape:cx="24"
     inkscape:cy="24"
     inkscape:window-width="3374"
     inkscape:window-height="1363"
     inkscape:window-x="66"
     inkscape:window-y="40"
     inkscape:window-maximized="1"
     inkscape:current-layer="svg132" />
  <path
     d="m 813.33337,-482.5 c 0,-53.84777 -44.7715,-97.50002 -100,-97.5 h -50 v -16.25 c 0,-98.7209 -82.0811,-178.75 -183.33333,-178.75 -83.33332,0 -154.33332,54.92499 -176.3334,130 h -23.66666 c -73.63796,0 -133.33332,58.20298 -133.33332,130 0,71.79702 59.69536,130 133.33332,130 l 100.99326,0.87416 c 0,0 -8.98013,30.4258 0.86038,61.57578 L 279.99998,-320 C 169.57764,-317.23542 80,-407.30448 80,-515 80,-615.75001 157.99999,-698.3 258.33332,-708.70001 299.99997,-786.70001 383.66672,-840 480.00004,-840 c 121.33333,0 222.33333,84.17499 245.33333,196.3 86.3333,5.85 154.6666,75.39999 154.6666,161.19999 0,53.625 -26.3333,100.75 -66.6666,130 v -16.25 c 0,-23.72499 -4,-46.8 -11.6667,-68.25 7.3333,-13 11.6667,-29.25 11.6667,-45.49999 z"
     id="path133"
     style="stroke-width:32.914"
     sodipodi:nodetypes="sscsscsssccsscscscscs" />
  <path
     d="m 601.10237,-177.79528 c -50.105,0 -92.81497,-17.65748 -128.13002,-52.97245 C 437.65748,-266.08268 420,-308.79265 420,-358.89764 c 0,-50.10499 17.65748,-92.81497 52.97235,-128.12992 C 508.2874,-522.34253 550.99737,-540 601.10237,-540 c 50.105,0 92.815,17.65747 128.1299,52.97244 35.315,35.31495 52.9725,78.02494 52.9725,128.12992 0,19.31758 -3.0184,38.03149 -9.0551,56.14172 -6.0368,18.11024 -15.092,35.01313 -27.1654,50.70867 l 125.8661,125.86614 c 5.4331,5.43307 8.1496,11.77165 8.1496,19.01574 0,7.2441 -2.7165,13.58268 -8.1496,19.01575 -5.433,5.43307 -11.7716,8.14961 -19.0157,8.14961 -7.2441,0 -13.5827,-2.71654 -19.0158,-8.14961 l -125.8661,-125.86613 c -15.6955,12.07349 -32.5984,21.1286 -50.7087,27.16535 -18.1102,6.03675 -36.8241,9.05512 -56.1417,9.05512 z m -0.2174,-54.3307 c 35.158,0 65.1125,-12.30289 89.8631,-36.90868 24.7506,-24.61181 37.126,-54.4937 37.126,-89.64567 0,-35.158 -12.303,-65.11232 -36.9088,-89.86298 -24.6118,-24.75066 -54.4937,-37.12599 -89.6457,-37.12599 -35.1579,0 -65.1123,12.30289 -89.86288,36.90866 -24.75071,24.61181 -37.12607,54.4937 -37.12607,89.64567 0,35.15801 12.30292,65.11234 36.90866,89.863 24.61179,24.75064 54.49369,37.12599 89.64569,37.12599 z"
     id="path7311"
     sodipodi:nodetypes="sssssssscssssscssscscscscs"
     style="stroke-width:0.905512;fill:#a42a04;fill-opacity:1" />
  <path
     d="m 599.97423,-260 q -8.25994,0 -14.11713,-5.71945 -5.8571,-5.71944 -5.8571,-13.75 0,-8.03055 5.88281,-13.725 5.88291,-5.69444 14.14285,-5.69444 8.26005,0 14.11714,5.71944 5.8572,5.71945 5.8572,13.75 0,8.03056 -5.88291,13.725 Q 608.23428,-260 599.97423,-260 Z m 0,-66.66667 q -8.25994,0 -14.11713,-5.71111 Q 580,-338.09167 580,-346.11111 v -94.44445 q 0,-8.02222 5.88281,-13.73333 Q 591.76572,-460 600.02566,-460 q 8.26005,0 14.11714,5.71111 5.8572,5.71111 5.8572,13.73333 v 94.44445 q 0,8.01944 -5.88291,13.73333 -5.88281,5.71111 -14.14286,5.71111 z"
     id="path1152"
     style="stroke-width:0.281718;fill:#a42a04;fill-opacity:1" />
</svg>
