<?xml version="1.0" encoding="UTF-8" standalone="no"?>
<svg
   height="48px"
   viewBox="0 -960 960 960"
   width="48px"
   fill="#000000"
   version="1.1"
   id="svg4"
   sodipodi:docname="query.svg"
   inkscape:version="1.2.2 (b0a8486541, 2022-12-01)"
   xmlns:inkscape="http://www.inkscape.org/namespaces/inkscape"
   xmlns:sodipodi="http://sodipodi.sourceforge.net/DTD/sodipodi-0.dtd"
   xmlns="http://www.w3.org/2000/svg"
   xmlns:svg="http://www.w3.org/2000/svg">
  <defs
     id="defs8" />
  <sodipodi:namedview
     id="namedview6"
     pagecolor="#ffffff"
     bordercolor="#000000"
     borderopacity="0.25"
     inkscape:showpageshadow="2"
     inkscape:pageopacity="0.0"
     inkscape:pagecheckerboard="0"
     inkscape:deskcolor="#d1d1d1"
     showgrid="false"
     inkscape:zoom="21.395833"
     inkscape:cx="24.046738"
     inkscape:cy="12.876339"
     inkscape:window-width="3374"
     inkscape:window-height="1363"
     inkscape:window-x="66"
     inkscape:window-y="40"
     inkscape:window-maximized="1"
     inkscape:current-layer="svg4" />
  <path
     d="m 813.33337,-482.5 c 0,-53.84777 -44.7715,-97.50002 -100.00002,-97.5 h -49.99999 v -16.25 C 663.33335,-694.9709 581.25223,-775 480.00004,-775 c -83.33332,0 -154.33332,54.925 -176.3334,130 h -23.66666 c -73.63796,0 -133.33332,58.20298 -133.33332,130 0,71.79702 59.69536,130 133.33332,130 l 100.99326,0.87417 c 0,0 -8.98013,30.4258 0.86038,61.57578 L 279.99998,-320 C 169.57764,-317.23542 80,-407.30447 80,-515 c 0,-100.75001 77.99999,-183.3 178.33332,-193.7 41.66665,-78 125.3334,-131.3 221.66672,-131.3 121.33333,0 222.33331,84.175 245.33333,196.30001 86.3333,5.85 154.6666,75.39999 154.6666,161.19999 0,53.625 -26.3333,100.75 -66.6666,130 v -16.25 c 0,-23.72499 -4,-46.8 -11.6667,-68.25 7.3333,-13 11.6667,-29.25 11.6667,-45.5 z"
     id="path133"
     style="stroke-width:32.914"
     sodipodi:nodetypes="sscsscsssccsscscscscs" />
  <path
     d="m 601.10236,-177.79528 c -50.10495,0 -92.81496,-17.65748 -128.13001,-52.97244 C 437.65748,-266.08268 420,-308.79265 420,-358.89764 c 0,-50.10498 17.65748,-92.81496 52.97235,-128.12992 C 508.2874,-522.34252 550.99741,-540 601.10236,-540 c 50.10496,0 92.81496,17.65748 128.12992,52.97244 35.31496,35.31496 52.97244,78.02494 52.97244,128.12992 0,19.31758 -3.01834,38.0315 -9.05511,56.14173 -6.03678,18.11024 -15.0919,35.01313 -27.16536,50.70867 l 125.86614,125.86614 c 5.43307,5.43307 8.14961,11.77165 8.14961,19.01574 0,7.2441 -2.71654,13.58268 -8.14961,19.01575 C 866.41732,-82.71654 860.07874,-80 852.83465,-80 c -7.2441,0 -13.58268,-2.71654 -19.01575,-8.14961 L 707.95276,-214.01575 c -15.69551,12.07349 -32.59843,21.12861 -50.70867,27.16536 -18.11023,6.03674 -36.82417,9.05511 -56.14173,9.05511 z m -0.21741,-54.3307 c 35.15803,0 65.11246,-12.30289 89.86308,-36.90867 24.75063,-24.61181 37.12599,-54.4937 37.12599,-89.64567 0,-35.158 -12.30292,-65.11233 -36.90876,-89.86299 -24.61181,-24.75065 -54.4937,-37.12598 -89.64567,-37.12598 -35.15794,0 -65.11227,12.30289 -89.8629,36.90866 -24.75071,24.61181 -37.12607,54.4937 -37.12607,89.64567 0,35.15801 12.30292,65.11234 36.90866,89.86299 24.61181,24.75065 54.4937,37.12599 89.64567,37.12599 z"
     id="path7311"
     sodipodi:nodetypes="sssssssscssssscssscscscscs"
     style="stroke-width:0.905512" />
</svg>
