<svg xmlns="http://www.w3.org/2000/svg" height="24" viewBox="0 96 960 960" width="24"><path d="M480 976q-140 0-241.5-92T122 656q-2-16 9.5-28t28.5-12q16 0 28.5 11.5T203 656q14 103 92 171.5T480 896q117 0 198.5-81.5T760 616q0-117-81.5-198.5T480 336h-6l35 35q11 11 11 28t-11 28q-12 12-29 12t-28-12L348 324q-6-6-8.5-13t-2.5-15q0-8 2.5-15t8.5-13l104-104q11-11 28-11t29 11q11 12 11 29t-11 28l-35 35h6q75 0 140.5 28.5t114 77q48.5 48.5 77 114T840 616q0 75-28.5 140.5t-77 114q-48.5 48.5-114 77T480 976Z"/></svg>
