<?xml version="1.0" encoding="UTF-8" standalone="no"?>
<svg
   height="24px"
   viewBox="0 -960 960 960"
   width="24px"
   fill="#4682b4"
   version="1.1"
   id="svg4"
   sodipodi:docname="stack.svg"
   inkscape:version="1.2.2 (b0a8486541, 2022-12-01)"
   xmlns:inkscape="http://www.inkscape.org/namespaces/inkscape"
   xmlns:sodipodi="http://sodipodi.sourceforge.net/DTD/sodipodi-0.dtd"
   xmlns="http://www.w3.org/2000/svg"
   xmlns:svg="http://www.w3.org/2000/svg">
  <defs
     id="defs8" />
  <sodipodi:namedview
     id="namedview6"
     pagecolor="#ffffff"
     bordercolor="#000000"
     borderopacity="0.25"
     inkscape:showpageshadow="2"
     inkscape:pageopacity="0.0"
     inkscape:pagecheckerboard="0"
     inkscape:deskcolor="#d1d1d1"
     showgrid="false"
     inkscape:zoom="42.791667"
     inkscape:cx="12"
     inkscape:cy="12.023369"
     inkscape:window-width="3374"
     inkscape:window-height="1361"
     inkscape:window-x="66"
     inkscape:window-y="40"
     inkscape:window-maximized="1"
     inkscape:current-layer="svg4" />
  <path
     d="M240-400v80h-80q-33 0-56.5-23.5T80-400v-400q0-33 23.5-56.5T160-880h400q33 0 56.5 23.5T640-800v80h-80v-80H160v400h80ZM400-80q-33 0-56.5-23.5T320-160v-400q0-33 23.5-56.5T400-640h400q33 0 56.5 23.5T880-560v400q0 33-23.5 56.5T800-80H400Zm0-80h400v-400H400v400Zm200-200Z"
     id="path2"
     style="fill:#4682b4;fill-opacity:1" />
</svg>
