<?xml version="1.0" encoding="UTF-8" standalone="no"?>
<svg
   height="24"
   viewBox="0 96 960 960"
   width="24"
   version="1.1"
   id="svg827"
   sodipodi:docname="visible.svg"
   inkscape:version="1.1.2 (0a00cf5339, 2022-02-04)"
   xmlns:inkscape="http://www.inkscape.org/namespaces/inkscape"
   xmlns:sodipodi="http://sodipodi.sourceforge.net/DTD/sodipodi-0.dtd"
   xmlns="http://www.w3.org/2000/svg"
   xmlns:svg="http://www.w3.org/2000/svg">
  <defs
     id="defs831" />
  <sodipodi:namedview
     id="namedview829"
     pagecolor="#ffffff"
     bordercolor="#000000"
     borderopacity="0.25"
     inkscape:pageshadow="2"
     inkscape:pageopacity="0.0"
     inkscape:pagecheckerboard="0"
     showgrid="false"
     inkscape:zoom="36.375"
     inkscape:cx="12"
     inkscape:cy="12"
     inkscape:window-width="3370"
     inkscape:window-height="1369"
     inkscape:window-x="70"
     inkscape:window-y="34"
     inkscape:window-maximized="1"
     inkscape:current-layer="svg827" />
  <g
     inkscape:groupmode="layer"
     id="layer1"
     inkscape:label="Layer 1"
     style="display:inline">
    <path
       style="fill:#2979ff;fill-rule:evenodd;stroke:#000000;stroke-width:0.00151203;stroke-linecap:square;paint-order:markers stroke fill"
       d="M 11.8968,4.0018793 C 10.990188,3.9866191 10.08526,4.0949126 9.204521,4.3082045 6.9674942,4.8371284 4.9086499,6.0659952 3.3425687,7.7439326 2.5030781,8.6518048 1.799213,9.6892624 1.2807668,10.81207 c -0.15244,0.388227 -0.1642253,0.834077 -0.048969,1.233355 0.354657,0.856587 0.8542115,1.649545 1.4114046,2.38837 1.7144114,2.233715 4.2609929,3.818498 7.0248983,4.359542 2.8386363,0.558728 5.8862973,0.07601 8.3702953,-1.422986 2.058388,-1.226116 3.755793,-3.082468 4.713054,-5.285246 0.125269,-0.335169 0.104313,-0.712502 0.04247,-1.05901 C 22.549133,10.329102 22.133579,9.7066988 21.732846,9.0912803 21.124126,8.1661619 20.331595,7.3792335 19.501742,6.6532271 17.859927,5.3107599 15.859025,4.4076438 13.756901,4.1074965 13.142363,4.0051728 12.518034,4.0029569 11.8968,4.0018793 Z m 0.08108,2.0169674 c 2.344105,-0.026903 4.673077,0.8566428 6.431973,2.401346 0.989098,0.8522689 1.787282,1.9120393 2.375963,3.0759413 -0.735695,1.470874 -1.82083,2.771682 -3.174522,3.711313 -1.612814,1.14378 -3.57803,1.780625 -5.557163,1.770866 C 10.041602,17.003335 8.0292531,16.380266 6.3915277,15.207968 5.0361331,14.268136 3.9418298,12.967289 3.2160653,11.488295 3.9349938,10.094699 4.9407464,8.8376668 6.2158823,7.9158535 7.8698559,6.6848907 9.9178491,6.0189355 11.977878,6.0188467 Z"
       id="path928"
       transform="matrix(40,0,0,40,0,96)" />
    <path
       style="fill:#2979ff;fill-rule:evenodd;stroke:#000000;stroke-width:0.00151203;stroke-linecap:square;paint-order:markers stroke fill"
       d="M 11.954951,6.9873282 C 10.824544,6.9825478 9.7003837,7.426553 8.8932609,8.2210048 8.1260525,8.9340501 7.6099903,9.9184885 7.5158935,10.966441 c -0.1420737,1.185263 0.1814115,2.432741 0.9539745,3.353081 0.5792907,0.71329 1.3577169,1.276298 2.249902,1.520684 0.931615,0.269118 1.945566,0.217379 2.859536,-0.09493 0.936789,-0.3282 1.697309,-1.035368 2.254886,-1.839991 0.617788,-0.934528 0.788675,-2.116987 0.61453,-3.210643 C 16.153934,8.8766904 14.616309,7.334559 12.793331,7.0518149 12.516517,7.0053983 12.235577,6.984665 11.954951,6.9873282 Z M 12,8.8387565 c 0.410119,-0.024765 0.820159,0.052986 1.184547,0.2448453 0.795061,0.4077964 1.409438,1.2105742 1.477072,2.1164872 0.0993,0.804982 -0.184264,1.648602 -0.776202,2.210027 -0.87257,0.908629 -2.403022,1.021198 -3.421352,0.294887 C 9.7252374,13.207129 9.2868281,12.31994 9.3209794,11.432995 9.3284092,10.684401 9.6696486,9.9495662 10.247383,9.4687173 10.696532,9.0733982 11.284685,8.8115263 11.890559,8.839408 11.927035,8.8388683 11.963521,8.8390674 12,8.8387565 Z"
       id="path967"
       transform="matrix(40,0,0,40,0,96)" />
  </g>
</svg>
