<svg xmlns="http://www.w3.org/2000/svg" height="24" viewBox="0 96 960 960" width="24"><path d="m644 628-58-58q9-47-27-88t-93-32l-58-58q17-8 34.5-12t37.5-4q75 0 127.5 52.5T660 556q0 20-4 37.5T644 628Zm128 126-58-56q38-29 67.5-63.5T832 556q-50-101-143.5-160.5T480 336q-29 0-57 4t-55 12l-62-62q41-17 84-25.5t90-8.5q143 0 257 75.5T908 528q3 5 4 12.5t1 15.5q0 8-1.5 15.5T908 584q-23 51-57.5 94T772 754Zm-8 218L624 834q-35 11-70.5 16.5T480 856q-143 0-257-75.5T52 584q-3-5-4-12.5T47 556q0-8 1-15t4-12q21-45 50-83t64-70l-83-84q-11-11-11-27.5T84 236q11-11 28-11t28 11l680 680q11 11 11.5 27.5T820 972q-11 11-28 11t-28-11ZM222 432q-29 26-53 57t-41 67q50 101 143.5 160.5T480 776q20 0 39-2.5t39-5.5l-36-38q-11 3-21 4.5t-21 1.5q-75 0-127.5-52.5T300 556q0-11 1.5-21t4.5-21l-84-82Zm319 93Zm-151 75Z"/></svg>
