<svg xmlns="http://www.w3.org/2000/svg" height="24" viewBox="0 96 960 960" width="24"><path d="M480 736q75 0 127.5-52.5T660 556q0-75-52.5-127.5T480 376q-75 0-127.5 52.5T300 556q0 75 52.5 127.5T480 736Zm0-72q-45 0-76.5-31.5T372 556q0-45 31.5-76.5T480 448q45 0 76.5 31.5T588 556q0 45-31.5 76.5T480 664Zm0 192q-139 0-254-73.5T52 584q-3-5-4-12.5T47 556q0-8 1-15.5t4-12.5q59-125 174-198.5T480 256q139 0 254 73.5T908 528q3 5 4 12.5t1 15.5q0 8-1 15.5t-4 12.5q-59 125-174 198.5T480 856Zm0-300Zm0 220q113 0 207.5-59.5T832 556q-50-101-144.5-160.5T480 336q-113 0-207.5 59.5T128 556q50 101 144.5 160.5T480 776Z"/></svg>
